Coordinates
version=1
nRows=8
nColumns=40
inDegrees=yes

Units are S.I. units (second, meters, Newtons, ...)
If the header above contains a line with 'inDegrees', this indicates whether rotational values are in degrees (yes) or radians (no).

endheader
time	pelvis_tilt	pelvis_list	pelvis_rotation	pelvis_tx	pelvis_ty	pelvis_tz	hip_flexion_r	hip_adduction_r	hip_rotation_r	knee_angle_r	knee_angle_r_beta	ankle_angle_r	subtalar_angle_r	mtp_angle_r	hip_flexion_l	hip_adduction_l	hip_rotation_l	knee_angle_l	knee_angle_l_beta	ankle_angle_l	subtalar_angle_l	mtp_angle_l	lumbar_extension	lumbar_bending	lumbar_rotation	arm_flex_r	arm_add_r	arm_rot_r	elbow_flex_r	pro_sup_r	wrist_flex_r	wrist_dev_r	arm_flex_l	arm_add_l	arm_rot_l	elbow_flex_l	pro_sup_l	wrist_flex_l	wrist_dev_l
      8.25000000	      8.02842217	      5.63964436	      5.78409389	      0.05077601	      1.32256200	     -0.00498075	     28.51695243	     -7.16925390	     -0.45286810	     68.40008039	      1.19380661	    -20.71325658	    -23.35995180	      0.00000000	     53.18445150	      2.64039571	     -0.09283433	     75.02309917	      1.30940010	     -4.22437490	    -18.70521317	      0.00000000	    -60.58335966	      1.44838272	     -6.43326520	     50.63097535	     14.69056444	    -66.30741167	     44.97575351	     79.95393291	      0.00000000	      0.00000000	     58.01271516	     18.51906519	    -62.88339588	     43.86605164	     58.87349601	      0.00000000	      0.00000000
      8.26700000	      8.44289640	      4.66327459	      4.82161001	      0.05073635	      1.32312093	     -0.00436982	     31.00570505	     -5.98604649	     -0.00369985	     73.79754670	      1.28801017	    -20.85876029	    -23.32970810	      0.00000000	     49.97540421	      1.29626349	     -0.06004845	     70.15327710	      1.22440567	     -5.25318320	    -18.22877698	      0.00000000	    -60.90990027	      1.52925417	     -5.26249950	     50.81106352	     14.95509798	    -66.05845543	     45.22815557	     79.73874065	      0.00000000	      0.00000000	     57.90971436	     18.35820237	    -62.96591515	     44.09145527	     58.73067889	      0.00000000	      0.00000000
      8.28300000	      8.78042372	      3.67917884	      3.86916627	      0.05063794	      1.32349767	     -0.00378926	     33.70713863	     -4.86758219	      0.24477658	     79.04004128	      1.37950896	    -21.02353567	    -23.31850389	      0.00000000	     46.53362492	     -0.11852778	     -0.21139383	     65.07560464	      1.13578356	     -6.84884834	    -17.53374715	      0.00000000	    -61.17274514	      1.65582572	     -4.10960837	     51.00260190	     15.24872360	    -65.80011857	     45.50615002	     79.60282777	      0.00000000	      0.00000000	     57.75677893	     18.17755075	    -63.08665152	     44.34226330	     58.60448813	      0.00000000	      0.00000000
      8.30000000	      8.95705739	      2.80570898	      2.84829750	      0.05051768	      1.32359562	     -0.00303183	     36.61947068	     -3.72563135	      0.59570619	     83.85474981	      1.46354148	    -21.22617952	    -23.37982885	      0.00000000	     43.05790257	     -1.51526688	     -0.67851592	     60.09547551	      1.04886391	     -8.49544197	    -16.81669401	      0.00000000	    -61.29953636	      1.60804200	     -2.99035446	     51.14080801	     15.52153145	    -65.60570387	     45.72622895	     79.54032279	      0.00000000	      0.00000000	     57.60352043	     17.98517848	    -63.23535780	     44.46786093	     58.48060985	      0.00000000	      0.00000000
      8.31700000	      8.96768782	      1.92158514	      1.89474404	      0.05035638	      1.32349360	     -0.00243838	     39.69024692	     -2.53700750	      0.81813882	     88.17513090	      1.53894635	    -21.34053261	    -23.56002872	      0.00000000	     39.53592979	     -2.85046256	     -1.32842141	     55.18786010	      0.96320987	    -10.15445144	    -16.10134984	      0.00000000	    -61.30014229	      1.62280635	     -1.84975370	     51.24341917	     15.74651225	    -65.45855694	     45.92827536	     79.76290950	      0.00000000	      0.00000000	     57.42328204	     17.79485298	    -63.38260756	     44.49341377	     58.41663429	      0.00000000	      0.00000000
      8.33300000	      8.83911248	      1.00358825	      1.09413059	      0.05023982	      1.32303765	     -0.00201291	     42.92657401	     -1.42625726	      0.77347769	     92.09913884	      1.60743321	    -21.26684420	    -23.68333442	      0.00000000	     36.02587655	     -4.10587611	     -1.99144259	     50.39283854	      0.87952095	    -12.07479499	    -15.20782216	      0.00000000	    -61.15833366	      1.76139987	     -0.73430765	     51.25710418	     15.90704930	    -65.32523968	     46.06587362	     79.90753821	      0.00000000	      0.00000000	     57.20852182	     17.57545873	    -63.49205754	     44.46957493	     58.34099846	      0.00000000	      0.00000000
      8.35000000	      8.75447129	      0.26473449	      0.02803297	      0.05021111	      1.32261805	     -0.00122451	     46.13589469	     -0.16829826	      1.00593945	     95.45584688	      1.66601882	    -21.16322018	    -23.74653148	      0.00000000	     32.46193140	     -5.38396445	     -3.18710118	     46.01091398	      0.80304194	    -13.62866101	    -14.28233109	      0.00000000	    -61.06434901	      1.52546686	      0.39280694	     51.25577472	     16.05191674	    -65.24020515	     46.18301432	     80.30335298	      0.00000000	      0.00000000	     57.01470411	     17.38978681	    -63.62030459	     44.32366444	     58.18669367	      0.00000000	      0.00000000
      8.36700000	      8.52002296	     -0.57840520	     -0.48715777	      0.05004698	      1.32201818	     -0.00112513	     49.45266543	      0.82057363	      0.78645997	     98.22571168	      1.71436208	    -20.66906927	    -23.56406531	      0.00000000	     29.35507326	     -6.47347368	     -3.87382197	     42.24497476	      0.73731390	    -15.24637212	    -13.30355977	      0.00000000	    -60.81594878	      1.76806213	      1.35190879	     51.23906562	     16.13172036	    -65.15920178	     46.16445379	     80.63143834	      0.00000000	      0.00000000	     56.87043015	     17.22278806	    -63.81808692	     44.17662646	     58.02804213	      0.00000000	      0.00000000
